<?xml version="1.0" encoding="UTF-8" standalone="no"?><svg xmlns="http://www.w3.org/2000/svg" xmlns:xlink="http://www.w3.org/1999/xlink" contentStyleType="text/css" height="614px" preserveAspectRatio="none" style="width:1649px;height:614px;background:#FFFFFF;" version="1.1" viewBox="0 0 1649 614" width="1649px" zoomAndPan="magnify"><defs/><g><rect fill="none" height="27.6094" id="_title" style="stroke:none;stroke-width:1.0;" width="73" x="733" y="5"/><text fill="#000000" font-family="sans-serif" font-size="14" font-weight="bold" lengthAdjust="spacing" textLength="63" x="738" y="24.5332">Term 232</text><rect fill="#ADD8E6" height="528.5547" style="stroke:none;stroke-width:1.0;" width="20" x="20" y="67.6094"/><text fill="#000000" font-family="Serif" font-size="10" lengthAdjust="spacing" textLength="5" x="5" y="65.0879">5</text><text fill="#000000" font-family="Serif" font-size="10" lengthAdjust="spacing" textLength="5" x="145" y="65.0879">6</text><text fill="#000000" font-family="Serif" font-size="10" lengthAdjust="spacing" textLength="5" x="285" y="65.0879">7</text><text fill="#000000" font-family="Serif" font-size="10" lengthAdjust="spacing" textLength="5" x="425" y="65.0879">8</text><text fill="#000000" font-family="Serif" font-size="10" lengthAdjust="spacing" textLength="5" x="565" y="65.0879">9</text><text fill="#000000" font-family="Serif" font-size="10" lengthAdjust="spacing" textLength="10" x="705" y="65.0879">10</text><text fill="#000000" font-family="Serif" font-size="10" lengthAdjust="spacing" textLength="10" x="845" y="65.0879">11</text><text fill="#000000" font-family="Serif" font-size="10" lengthAdjust="spacing" textLength="10" x="985" y="65.0879">12</text><text fill="#000000" font-family="Serif" font-size="10" lengthAdjust="spacing" textLength="10" x="1125" y="65.0879">13</text><text fill="#000000" font-family="Serif" font-size="10" lengthAdjust="spacing" textLength="10" x="1265" y="65.0879">14</text><text fill="#000000" font-family="Serif" font-size="10" lengthAdjust="spacing" textLength="10" x="1405" y="65.0879">15</text><line style="stroke:#C0C0C0;stroke-width:1.0;" x1="0" x2="0" y1="54.6094" y2="596.1641"/><line style="stroke:#C0C0C0;stroke-width:1.0;" x1="140" x2="140" y1="54.6094" y2="596.1641"/><line style="stroke:#C0C0C0;stroke-width:1.0;" x1="280" x2="280" y1="54.6094" y2="596.1641"/><line style="stroke:#C0C0C0;stroke-width:1.0;" x1="420" x2="420" y1="54.6094" y2="596.1641"/><line style="stroke:#C0C0C0;stroke-width:1.0;" x1="560" x2="560" y1="54.6094" y2="596.1641"/><line style="stroke:#C0C0C0;stroke-width:1.0;" x1="700" x2="700" y1="54.6094" y2="596.1641"/><line style="stroke:#C0C0C0;stroke-width:1.0;" x1="840" x2="840" y1="54.6094" y2="596.1641"/><line style="stroke:#C0C0C0;stroke-width:1.0;" x1="980" x2="980" y1="54.6094" y2="596.1641"/><line style="stroke:#C0C0C0;stroke-width:1.0;" x1="1120" x2="1120" y1="54.6094" y2="596.1641"/><line style="stroke:#C0C0C0;stroke-width:1.0;" x1="1260" x2="1260" y1="54.6094" y2="596.1641"/><line style="stroke:#C0C0C0;stroke-width:1.0;" x1="1400" x2="1400" y1="54.6094" y2="596.1641"/><line style="stroke:#C0C0C0;stroke-width:1.0;" x1="1540" x2="1540" y1="54.6094" y2="596.1641"/><line style="stroke:#C0C0C0;stroke-width:1.0;" x1="0" x2="0" y1="38.6094" y2="54.6094"/><line style="stroke:#C0C0C0;stroke-width:1.0;" x1="60" x2="60" y1="38.6094" y2="54.6094"/><text fill="#000000" font-family="Serif" font-size="12" font-weight="bold" lengthAdjust="spacing" textLength="46" x="7" y="51.1836">Jan 2024</text><line style="stroke:#C0C0C0;stroke-width:1.0;" x1="640" x2="640" y1="38.6094" y2="54.6094"/><text fill="#000000" font-family="Serif" font-size="12" font-weight="bold" lengthAdjust="spacing" textLength="46" x="327" y="51.1836">Feb 2024</text><line style="stroke:#C0C0C0;stroke-width:1.0;" x1="1260" x2="1260" y1="38.6094" y2="54.6094"/><text fill="#000000" font-family="Serif" font-size="12" font-weight="bold" lengthAdjust="spacing" textLength="49" x="925.5" y="51.1836">Mar 2024</text><line style="stroke:#C0C0C0;stroke-width:1.0;" x1="1540" x2="1540" y1="38.6094" y2="54.6094"/><text fill="#000000" font-family="Serif" font-size="12" font-weight="bold" lengthAdjust="spacing" textLength="46" x="1377" y="51.1836">Apr 2024</text><line style="stroke:#C0C0C0;stroke-width:1.0;" x1="0" x2="1540" y1="38.6094" y2="38.6094"/><line style="stroke:#C0C0C0;stroke-width:1.0;" x1="0" x2="1540" y1="54.6094" y2="54.6094"/><line style="stroke:#C0C0C0;stroke-width:1.0;" x1="0" x2="1540" y1="67.6094" y2="67.6094"/><line style="stroke:#181818;stroke-width:1.5;" x1="130" x2="130" y1="83.4453" y2="126.1992"/><line style="stroke:#181818;stroke-width:1.5;" x1="130" x2="139" y1="126.1992" y2="126.1992"/><polygon fill="#181818" points="135,122.1992,135,126.1992,135,130.1992,139,126.1992" style="stroke:#181818;stroke-width:1.5;"/><line style="stroke:#181818;stroke-width:1.5;" x1="130" x2="130" y1="101.2813" y2="144.0352"/><line style="stroke:#181818;stroke-width:1.5;" x1="130" x2="139" y1="144.0352" y2="144.0352"/><polygon fill="#181818" points="135,140.0352,135,144.0352,135,148.0352,139,144.0352" style="stroke:#181818;stroke-width:1.5;"/><line style="stroke:#181818;stroke-width:1.5;" x1="270" x2="270" y1="133.1172" y2="175.8711"/><line style="stroke:#181818;stroke-width:1.5;" x1="270" x2="279" y1="175.8711" y2="175.8711"/><polygon fill="#181818" points="275,171.8711,275,175.8711,275,179.8711,279,175.8711" style="stroke:#181818;stroke-width:1.5;"/><line style="stroke:#181818;stroke-width:1.5;" x1="270" x2="270" y1="150.9531" y2="193.707"/><line style="stroke:#181818;stroke-width:1.5;" x1="270" x2="279" y1="193.707" y2="193.707"/><polygon fill="#181818" points="275,189.707,275,193.707,275,197.707,279,193.707" style="stroke:#181818;stroke-width:1.5;"/><line style="stroke:#181818;stroke-width:1.5;" x1="410" x2="410" y1="182.7891" y2="225.543"/><line style="stroke:#181818;stroke-width:1.5;" x1="410" x2="419" y1="225.543" y2="225.543"/><polygon fill="#181818" points="415,221.543,415,225.543,415,229.543,419,225.543" style="stroke:#181818;stroke-width:1.5;"/><line style="stroke:#181818;stroke-width:1.5;" x1="410" x2="410" y1="200.625" y2="243.3789"/><line style="stroke:#181818;stroke-width:1.5;" x1="410" x2="419" y1="243.3789" y2="243.3789"/><polygon fill="#181818" points="415,239.3789,415,243.3789,415,247.3789,419,243.3789" style="stroke:#181818;stroke-width:1.5;"/><line style="stroke:#181818;stroke-width:1.5;" x1="550" x2="550" y1="232.4609" y2="275.2148"/><line style="stroke:#181818;stroke-width:1.5;" x1="550" x2="559" y1="275.2148" y2="275.2148"/><polygon fill="#181818" points="555,271.2148,555,275.2148,555,279.2148,559,275.2148" style="stroke:#181818;stroke-width:1.5;"/><line style="stroke:#181818;stroke-width:1.5;" x1="550" x2="550" y1="250.2969" y2="293.0508"/><line style="stroke:#181818;stroke-width:1.5;" x1="550" x2="559" y1="293.0508" y2="293.0508"/><polygon fill="#181818" points="555,289.0508,555,293.0508,555,297.0508,559,293.0508" style="stroke:#181818;stroke-width:1.5;"/><line style="stroke:#181818;stroke-width:1.5;" x1="690" x2="690" y1="282.1328" y2="324.8867"/><line style="stroke:#181818;stroke-width:1.5;" x1="690" x2="699" y1="324.8867" y2="324.8867"/><polygon fill="#181818" points="695,320.8867,695,324.8867,695,328.8867,699,324.8867" style="stroke:#181818;stroke-width:1.5;"/><line style="stroke:#181818;stroke-width:1.5;" x1="690" x2="690" y1="299.9688" y2="342.7227"/><line style="stroke:#181818;stroke-width:1.5;" x1="690" x2="699" y1="342.7227" y2="342.7227"/><polygon fill="#181818" points="695,338.7227,695,342.7227,695,346.7227,699,342.7227" style="stroke:#181818;stroke-width:1.5;"/><line style="stroke:#181818;stroke-width:1.5;" x1="830" x2="830" y1="331.8047" y2="374.5586"/><line style="stroke:#181818;stroke-width:1.5;" x1="830" x2="839" y1="374.5586" y2="374.5586"/><polygon fill="#181818" points="835,370.5586,835,374.5586,835,378.5586,839,374.5586" style="stroke:#181818;stroke-width:1.5;"/><line style="stroke:#181818;stroke-width:1.5;" x1="830" x2="830" y1="349.6406" y2="392.3945"/><line style="stroke:#181818;stroke-width:1.5;" x1="830" x2="839" y1="392.3945" y2="392.3945"/><polygon fill="#181818" points="835,388.3945,835,392.3945,835,396.3945,839,392.3945" style="stroke:#181818;stroke-width:1.5;"/><line style="stroke:#181818;stroke-width:1.5;" x1="970" x2="970" y1="381.4766" y2="424.2305"/><line style="stroke:#181818;stroke-width:1.5;" x1="970" x2="979" y1="424.2305" y2="424.2305"/><polygon fill="#181818" points="975,420.2305,975,424.2305,975,428.2305,979,424.2305" style="stroke:#181818;stroke-width:1.5;"/><line style="stroke:#181818;stroke-width:1.5;" x1="970" x2="970" y1="399.3125" y2="442.0664"/><line style="stroke:#181818;stroke-width:1.5;" x1="970" x2="979" y1="442.0664" y2="442.0664"/><polygon fill="#181818" points="975,438.0664,975,442.0664,975,446.0664,979,442.0664" style="stroke:#181818;stroke-width:1.5;"/><line style="stroke:#181818;stroke-width:1.5;" x1="1110" x2="1110" y1="431.1484" y2="473.9023"/><line style="stroke:#181818;stroke-width:1.5;" x1="1110" x2="1119" y1="473.9023" y2="473.9023"/><polygon fill="#181818" points="1115,469.9023,1115,473.9023,1115,477.9023,1119,473.9023" style="stroke:#181818;stroke-width:1.5;"/><line style="stroke:#181818;stroke-width:1.5;" x1="1110" x2="1110" y1="448.9844" y2="491.7383"/><line style="stroke:#181818;stroke-width:1.5;" x1="1110" x2="1119" y1="491.7383" y2="491.7383"/><polygon fill="#181818" points="1115,487.7383,1115,491.7383,1115,495.7383,1119,491.7383" style="stroke:#181818;stroke-width:1.5;"/><line style="stroke:#181818;stroke-width:1.5;" x1="1250" x2="1250" y1="480.8203" y2="523.5742"/><line style="stroke:#181818;stroke-width:1.5;" x1="1250" x2="1259" y1="523.5742" y2="523.5742"/><polygon fill="#181818" points="1255,519.5742,1255,523.5742,1255,527.5742,1259,523.5742" style="stroke:#181818;stroke-width:1.5;"/><line style="stroke:#181818;stroke-width:1.5;" x1="1250" x2="1250" y1="498.6563" y2="541.4102"/><line style="stroke:#181818;stroke-width:1.5;" x1="1250" x2="1259" y1="541.4102" y2="541.4102"/><polygon fill="#181818" points="1255,537.4102,1255,541.4102,1255,545.4102,1259,541.4102" style="stroke:#181818;stroke-width:1.5;"/><line style="stroke:#181818;stroke-width:1.5;" x1="1390" x2="1390" y1="530.4922" y2="573.2461"/><line style="stroke:#181818;stroke-width:1.5;" x1="1390" x2="1399" y1="573.2461" y2="573.2461"/><polygon fill="#181818" points="1395,569.2461,1395,573.2461,1395,577.2461,1399,573.2461" style="stroke:#181818;stroke-width:1.5;"/><rect fill="#E2E2F0" height="13.8359" style="stroke:none;stroke-width:1.0;" width="136" x="2" y="69.6094"/><line style="stroke:#181818;stroke-width:1.0;" x1="2" x2="138" y1="69.6094" y2="69.6094"/><line style="stroke:#181818;stroke-width:1.0;" x1="2" x2="138" y1="83.4453" y2="83.4453"/><line style="stroke:#181818;stroke-width:1.0;" x1="2" x2="2" y1="69.6094" y2="83.4453"/><line style="stroke:#181818;stroke-width:1.0;" x1="138" x2="138" y1="69.6094" y2="83.4453"/><rect fill="#E2E2F0" height="13.8359" style="stroke:none;stroke-width:1.0;" width="136" x="2" y="87.4453"/><line style="stroke:#181818;stroke-width:1.0;" x1="2" x2="138" y1="87.4453" y2="87.4453"/><line style="stroke:#181818;stroke-width:1.0;" x1="2" x2="138" y1="101.2813" y2="101.2813"/><line style="stroke:#181818;stroke-width:1.0;" x1="2" x2="2" y1="87.4453" y2="101.2813"/><line style="stroke:#181818;stroke-width:1.0;" x1="138" x2="138" y1="87.4453" y2="101.2813"/><polygon fill="#000000" points="130,105.2813,135,110.2813,130,115.2813,125,110.2813" style="stroke:#000000;stroke-width:1.0;"/><rect fill="#E2E2F0" height="13.8359" style="stroke:none;stroke-width:1.0;" width="136" x="142" y="119.2813"/><line style="stroke:#181818;stroke-width:1.0;" x1="142" x2="278" y1="119.2813" y2="119.2813"/><line style="stroke:#181818;stroke-width:1.0;" x1="142" x2="278" y1="133.1172" y2="133.1172"/><line style="stroke:#181818;stroke-width:1.0;" x1="142" x2="142" y1="119.2813" y2="133.1172"/><line style="stroke:#181818;stroke-width:1.0;" x1="278" x2="278" y1="119.2813" y2="133.1172"/><rect fill="#E2E2F0" height="13.8359" style="stroke:none;stroke-width:1.0;" width="136" x="142" y="137.1172"/><line style="stroke:#181818;stroke-width:1.0;" x1="142" x2="278" y1="137.1172" y2="137.1172"/><line style="stroke:#181818;stroke-width:1.0;" x1="142" x2="278" y1="150.9531" y2="150.9531"/><line style="stroke:#181818;stroke-width:1.0;" x1="142" x2="142" y1="137.1172" y2="150.9531"/><line style="stroke:#181818;stroke-width:1.0;" x1="278" x2="278" y1="137.1172" y2="150.9531"/><polygon fill="#000000" points="270,154.9531,275,159.9531,270,164.9531,265,159.9531" style="stroke:#000000;stroke-width:1.0;"/><rect fill="#E2E2F0" height="13.8359" style="stroke:none;stroke-width:1.0;" width="136" x="282" y="168.9531"/><line style="stroke:#181818;stroke-width:1.0;" x1="282" x2="418" y1="168.9531" y2="168.9531"/><line style="stroke:#181818;stroke-width:1.0;" x1="282" x2="418" y1="182.7891" y2="182.7891"/><line style="stroke:#181818;stroke-width:1.0;" x1="282" x2="282" y1="168.9531" y2="182.7891"/><line style="stroke:#181818;stroke-width:1.0;" x1="418" x2="418" y1="168.9531" y2="182.7891"/><rect fill="#E2E2F0" height="13.8359" style="stroke:none;stroke-width:1.0;" width="136" x="282" y="186.7891"/><line style="stroke:#181818;stroke-width:1.0;" x1="282" x2="418" y1="186.7891" y2="186.7891"/><line style="stroke:#181818;stroke-width:1.0;" x1="282" x2="418" y1="200.625" y2="200.625"/><line style="stroke:#181818;stroke-width:1.0;" x1="282" x2="282" y1="186.7891" y2="200.625"/><line style="stroke:#181818;stroke-width:1.0;" x1="418" x2="418" y1="186.7891" y2="200.625"/><polygon fill="#000000" points="410,204.625,415,209.625,410,214.625,405,209.625" style="stroke:#000000;stroke-width:1.0;"/><rect fill="#E2E2F0" height="13.8359" style="stroke:none;stroke-width:1.0;" width="136" x="422" y="218.625"/><line style="stroke:#181818;stroke-width:1.0;" x1="422" x2="558" y1="218.625" y2="218.625"/><line style="stroke:#181818;stroke-width:1.0;" x1="422" x2="558" y1="232.4609" y2="232.4609"/><line style="stroke:#181818;stroke-width:1.0;" x1="422" x2="422" y1="218.625" y2="232.4609"/><line style="stroke:#181818;stroke-width:1.0;" x1="558" x2="558" y1="218.625" y2="232.4609"/><rect fill="#E2E2F0" height="13.8359" style="stroke:none;stroke-width:1.0;" width="136" x="422" y="236.4609"/><line style="stroke:#181818;stroke-width:1.0;" x1="422" x2="558" y1="236.4609" y2="236.4609"/><line style="stroke:#181818;stroke-width:1.0;" x1="422" x2="558" y1="250.2969" y2="250.2969"/><line style="stroke:#181818;stroke-width:1.0;" x1="422" x2="422" y1="236.4609" y2="250.2969"/><line style="stroke:#181818;stroke-width:1.0;" x1="558" x2="558" y1="236.4609" y2="250.2969"/><polygon fill="#000000" points="550,254.2969,555,259.2969,550,264.2969,545,259.2969" style="stroke:#000000;stroke-width:1.0;"/><rect fill="#E2E2F0" height="13.8359" style="stroke:none;stroke-width:1.0;" width="136" x="562" y="268.2969"/><line style="stroke:#181818;stroke-width:1.0;" x1="562" x2="698" y1="268.2969" y2="268.2969"/><line style="stroke:#181818;stroke-width:1.0;" x1="562" x2="698" y1="282.1328" y2="282.1328"/><line style="stroke:#181818;stroke-width:1.0;" x1="562" x2="562" y1="268.2969" y2="282.1328"/><line style="stroke:#181818;stroke-width:1.0;" x1="698" x2="698" y1="268.2969" y2="282.1328"/><rect fill="#E2E2F0" height="13.8359" style="stroke:none;stroke-width:1.0;" width="136" x="562" y="286.1328"/><line style="stroke:#181818;stroke-width:1.0;" x1="562" x2="698" y1="286.1328" y2="286.1328"/><line style="stroke:#181818;stroke-width:1.0;" x1="562" x2="698" y1="299.9688" y2="299.9688"/><line style="stroke:#181818;stroke-width:1.0;" x1="562" x2="562" y1="286.1328" y2="299.9688"/><line style="stroke:#181818;stroke-width:1.0;" x1="698" x2="698" y1="286.1328" y2="299.9688"/><polygon fill="#000000" points="690,303.9688,695,308.9688,690,313.9688,685,308.9688" style="stroke:#000000;stroke-width:1.0;"/><rect fill="#E2E2F0" height="13.8359" style="stroke:none;stroke-width:1.0;" width="136" x="702" y="317.9688"/><line style="stroke:#181818;stroke-width:1.0;" x1="702" x2="838" y1="317.9688" y2="317.9688"/><line style="stroke:#181818;stroke-width:1.0;" x1="702" x2="838" y1="331.8047" y2="331.8047"/><line style="stroke:#181818;stroke-width:1.0;" x1="702" x2="702" y1="317.9688" y2="331.8047"/><line style="stroke:#181818;stroke-width:1.0;" x1="838" x2="838" y1="317.9688" y2="331.8047"/><rect fill="#E2E2F0" height="13.8359" style="stroke:none;stroke-width:1.0;" width="136" x="702" y="335.8047"/><line style="stroke:#181818;stroke-width:1.0;" x1="702" x2="838" y1="335.8047" y2="335.8047"/><line style="stroke:#181818;stroke-width:1.0;" x1="702" x2="838" y1="349.6406" y2="349.6406"/><line style="stroke:#181818;stroke-width:1.0;" x1="702" x2="702" y1="335.8047" y2="349.6406"/><line style="stroke:#181818;stroke-width:1.0;" x1="838" x2="838" y1="335.8047" y2="349.6406"/><polygon fill="#000000" points="830,353.6406,835,358.6406,830,363.6406,825,358.6406" style="stroke:#000000;stroke-width:1.0;"/><rect fill="#E2E2F0" height="13.8359" style="stroke:none;stroke-width:1.0;" width="136" x="842" y="367.6406"/><line style="stroke:#181818;stroke-width:1.0;" x1="842" x2="978" y1="367.6406" y2="367.6406"/><line style="stroke:#181818;stroke-width:1.0;" x1="842" x2="978" y1="381.4766" y2="381.4766"/><line style="stroke:#181818;stroke-width:1.0;" x1="842" x2="842" y1="367.6406" y2="381.4766"/><line style="stroke:#181818;stroke-width:1.0;" x1="978" x2="978" y1="367.6406" y2="381.4766"/><rect fill="#E2E2F0" height="13.8359" style="stroke:none;stroke-width:1.0;" width="136" x="842" y="385.4766"/><line style="stroke:#181818;stroke-width:1.0;" x1="842" x2="978" y1="385.4766" y2="385.4766"/><line style="stroke:#181818;stroke-width:1.0;" x1="842" x2="978" y1="399.3125" y2="399.3125"/><line style="stroke:#181818;stroke-width:1.0;" x1="842" x2="842" y1="385.4766" y2="399.3125"/><line style="stroke:#181818;stroke-width:1.0;" x1="978" x2="978" y1="385.4766" y2="399.3125"/><polygon fill="#000000" points="970,403.3125,975,408.3125,970,413.3125,965,408.3125" style="stroke:#000000;stroke-width:1.0;"/><rect fill="#E2E2F0" height="13.8359" style="stroke:none;stroke-width:1.0;" width="136" x="982" y="417.3125"/><line style="stroke:#181818;stroke-width:1.0;" x1="982" x2="1118" y1="417.3125" y2="417.3125"/><line style="stroke:#181818;stroke-width:1.0;" x1="982" x2="1118" y1="431.1484" y2="431.1484"/><line style="stroke:#181818;stroke-width:1.0;" x1="982" x2="982" y1="417.3125" y2="431.1484"/><line style="stroke:#181818;stroke-width:1.0;" x1="1118" x2="1118" y1="417.3125" y2="431.1484"/><rect fill="#E2E2F0" height="13.8359" style="stroke:none;stroke-width:1.0;" width="136" x="982" y="435.1484"/><line style="stroke:#181818;stroke-width:1.0;" x1="982" x2="1118" y1="435.1484" y2="435.1484"/><line style="stroke:#181818;stroke-width:1.0;" x1="982" x2="1118" y1="448.9844" y2="448.9844"/><line style="stroke:#181818;stroke-width:1.0;" x1="982" x2="982" y1="435.1484" y2="448.9844"/><line style="stroke:#181818;stroke-width:1.0;" x1="1118" x2="1118" y1="435.1484" y2="448.9844"/><polygon fill="#000000" points="1110,452.9844,1115,457.9844,1110,462.9844,1105,457.9844" style="stroke:#000000;stroke-width:1.0;"/><rect fill="#E2E2F0" height="13.8359" style="stroke:none;stroke-width:1.0;" width="136" x="1122" y="466.9844"/><line style="stroke:#181818;stroke-width:1.0;" x1="1122" x2="1258" y1="466.9844" y2="466.9844"/><line style="stroke:#181818;stroke-width:1.0;" x1="1122" x2="1258" y1="480.8203" y2="480.8203"/><line style="stroke:#181818;stroke-width:1.0;" x1="1122" x2="1122" y1="466.9844" y2="480.8203"/><line style="stroke:#181818;stroke-width:1.0;" x1="1258" x2="1258" y1="466.9844" y2="480.8203"/><rect fill="#E2E2F0" height="13.8359" style="stroke:none;stroke-width:1.0;" width="136" x="1122" y="484.8203"/><line style="stroke:#181818;stroke-width:1.0;" x1="1122" x2="1258" y1="484.8203" y2="484.8203"/><line style="stroke:#181818;stroke-width:1.0;" x1="1122" x2="1258" y1="498.6563" y2="498.6563"/><line style="stroke:#181818;stroke-width:1.0;" x1="1122" x2="1122" y1="484.8203" y2="498.6563"/><line style="stroke:#181818;stroke-width:1.0;" x1="1258" x2="1258" y1="484.8203" y2="498.6563"/><polygon fill="#000000" points="1250,502.6563,1255,507.6563,1250,512.6563,1245,507.6563" style="stroke:#000000;stroke-width:1.0;"/><rect fill="#E2E2F0" height="13.8359" style="stroke:none;stroke-width:1.0;" width="136" x="1262" y="516.6563"/><line style="stroke:#181818;stroke-width:1.0;" x1="1262" x2="1398" y1="516.6563" y2="516.6563"/><line style="stroke:#181818;stroke-width:1.0;" x1="1262" x2="1398" y1="530.4922" y2="530.4922"/><line style="stroke:#181818;stroke-width:1.0;" x1="1262" x2="1262" y1="516.6563" y2="530.4922"/><line style="stroke:#181818;stroke-width:1.0;" x1="1398" x2="1398" y1="516.6563" y2="530.4922"/><rect fill="#E2E2F0" height="13.8359" style="stroke:none;stroke-width:1.0;" width="136" x="1262" y="534.4922"/><line style="stroke:#181818;stroke-width:1.0;" x1="1262" x2="1398" y1="534.4922" y2="534.4922"/><line style="stroke:#181818;stroke-width:1.0;" x1="1262" x2="1398" y1="548.3281" y2="548.3281"/><line style="stroke:#181818;stroke-width:1.0;" x1="1262" x2="1262" y1="534.4922" y2="548.3281"/><line style="stroke:#181818;stroke-width:1.0;" x1="1398" x2="1398" y1="534.4922" y2="548.3281"/><polygon fill="#000000" points="1390,552.3281,1395,557.3281,1390,562.3281,1385,557.3281" style="stroke:#000000;stroke-width:1.0;"/><rect fill="#E2E2F0" height="13.8359" style="stroke:none;stroke-width:1.0;" width="136" x="1402" y="566.3281"/><line style="stroke:#181818;stroke-width:1.0;" x1="1402" x2="1538" y1="566.3281" y2="566.3281"/><line style="stroke:#181818;stroke-width:1.0;" x1="1402" x2="1538" y1="580.1641" y2="580.1641"/><line style="stroke:#181818;stroke-width:1.0;" x1="1402" x2="1402" y1="566.3281" y2="580.1641"/><line style="stroke:#181818;stroke-width:1.0;" x1="1538" x2="1538" y1="566.3281" y2="580.1641"/><polygon fill="#000000" points="1530,584.1641,1535,589.1641,1530,594.1641,1525,589.1641" style="stroke:#000000;stroke-width:1.0;"/><text fill="#000000" font-family="sans-serif" font-size="11" lengthAdjust="spacing" textLength="81" x="6" y="81.0283">Initial UI mockups</text><text fill="#000000" font-family="sans-serif" font-size="11" lengthAdjust="spacing" textLength="97" x="6" y="98.8643">Setup backend infra</text><text fill="#000000" font-family="sans-serif" font-size="11" lengthAdjust="spacing" textLength="134" x="138" y="114.7822">UI &amp; Backend Setup Initiated</text><text fill="#000000" font-family="sans-serif" font-size="11" lengthAdjust="spacing" textLength="93" x="146" y="130.7002">User auth. screens</text><text fill="#000000" font-family="sans-serif" font-size="11" lengthAdjust="spacing" textLength="95" x="146" y="148.5361">User auth. services</text><text fill="#000000" font-family="sans-serif" font-size="11" lengthAdjust="spacing" textLength="107" x="278" y="164.4541">User auth. Prototyping</text><text fill="#000000" font-family="sans-serif" font-size="11" lengthAdjust="spacing" textLength="108" x="286" y="180.3721">Book catalog Listing UI</text><text fill="#000000" font-family="sans-serif" font-size="11" lengthAdjust="spacing" textLength="102" x="286" y="198.208">DB. setup for catalog</text><text fill="#000000" font-family="sans-serif" font-size="11" lengthAdjust="spacing" textLength="173" x="418" y="214.126">Book catalog Interface Development</text><text fill="#000000" font-family="sans-serif" font-size="11" lengthAdjust="spacing" textLength="68" x="426" y="230.0439">User Profile UI</text><text fill="#000000" font-family="sans-serif" font-size="11" lengthAdjust="spacing" textLength="75" x="426" y="247.8799">User Profile API</text><text fill="#000000" font-family="sans-serif" font-size="11" lengthAdjust="spacing" textLength="109" x="558" y="263.7979">User Profile Integration</text><text fill="#000000" font-family="sans-serif" font-size="11" lengthAdjust="spacing" textLength="97" x="566" y="279.7158">Reading Features UI</text><text fill="#000000" font-family="sans-serif" font-size="11" lengthAdjust="spacing" textLength="102" x="566" y="297.5518">Reading features API</text><text fill="#000000" font-family="sans-serif" font-size="11" lengthAdjust="spacing" textLength="136" x="698" y="313.4697">Reading Feature Prototyping</text><text fill="#000000" font-family="sans-serif" font-size="11" lengthAdjust="spacing" textLength="110" x="706" y="329.3877">Library Management UI</text><text fill="#000000" font-family="sans-serif" font-size="11" lengthAdjust="spacing" textLength="117" x="706" y="347.2236">Library Management API</text><text fill="#000000" font-family="sans-serif" font-size="11" lengthAdjust="spacing" textLength="202" x="838" y="363.1416">Library Management System Development</text><text fill="#000000" font-family="sans-serif" font-size="11" lengthAdjust="spacing" textLength="31" x="846" y="379.0596">TTS UI</text><text fill="#000000" font-family="sans-serif" font-size="11" lengthAdjust="spacing" textLength="90" x="846" y="396.8955">Setup TTS Service</text><text fill="#000000" font-family="sans-serif" font-size="11" lengthAdjust="spacing" textLength="112" x="978" y="412.8135">TTS Feature Integration</text><text fill="#000000" font-family="sans-serif" font-size="11" lengthAdjust="spacing" textLength="91" x="986" y="428.7314">Visual. Features UI</text><text fill="#000000" font-family="sans-serif" font-size="11" lengthAdjust="spacing" textLength="78" x="986" y="446.5674">Visual. services</text><text fill="#000000" font-family="sans-serif" font-size="11" lengthAdjust="spacing" textLength="144" x="1118" y="462.4854">Visual. Features Development</text><text fill="#000000" font-family="sans-serif" font-size="11" lengthAdjust="spacing" textLength="106" x="1126" y="478.4033">Summary. Features UI</text><text fill="#000000" font-family="sans-serif" font-size="11" lengthAdjust="spacing" textLength="119" x="1126" y="496.2393">Setup Summary. Service</text><text fill="#000000" font-family="sans-serif" font-size="11" lengthAdjust="spacing" textLength="141" x="1258" y="512.1572">Summary. Feature Integration</text><text fill="#000000" font-family="sans-serif" font-size="11" lengthAdjust="spacing" textLength="43" x="1266" y="528.0752">Notifs. UI</text><text fill="#000000" font-family="sans-serif" font-size="11" lengthAdjust="spacing" textLength="69" x="1266" y="545.9111">Notifs. system</text><text fill="#000000" font-family="sans-serif" font-size="11" lengthAdjust="spacing" textLength="101" x="1398" y="561.8291">Notifs. System Setup</text><text fill="#000000" font-family="sans-serif" font-size="11" lengthAdjust="spacing" textLength="61" x="1406" y="577.7471">Final tweaks</text><text fill="#000000" font-family="sans-serif" font-size="11" lengthAdjust="spacing" textLength="109" x="1538" y="593.665">Finalize Implementation</text><line style="stroke:#C0C0C0;stroke-width:1.0;" x1="0" x2="1540" y1="596.1641" y2="596.1641"/><line style="stroke:#C0C0C0;stroke-width:1.0;" x1="0" x2="0" y1="596.1641" y2="612.1641"/><line style="stroke:#C0C0C0;stroke-width:1.0;" x1="60" x2="60" y1="596.1641" y2="612.1641"/><text fill="#000000" font-family="Serif" font-size="12" font-weight="bold" lengthAdjust="spacing" textLength="46" x="7" y="608.7383">Jan 2024</text><line style="stroke:#C0C0C0;stroke-width:1.0;" x1="640" x2="640" y1="596.1641" y2="612.1641"/><text fill="#000000" font-family="Serif" font-size="12" font-weight="bold" lengthAdjust="spacing" textLength="46" x="327" y="608.7383">Feb 2024</text><line style="stroke:#C0C0C0;stroke-width:1.0;" x1="1260" x2="1260" y1="596.1641" y2="612.1641"/><text fill="#000000" font-family="Serif" font-size="12" font-weight="bold" lengthAdjust="spacing" textLength="49" x="925.5" y="608.7383">Mar 2024</text><line style="stroke:#C0C0C0;stroke-width:1.0;" x1="1540" x2="1540" y1="596.1641" y2="612.1641"/><text fill="#000000" font-family="Serif" font-size="12" font-weight="bold" lengthAdjust="spacing" textLength="46" x="1377" y="608.7383">Apr 2024</text><line style="stroke:#C0C0C0;stroke-width:1.0;" x1="0" x2="1540" y1="612.1641" y2="612.1641"/><!--MD5=[986d7b2ceeb80257d53d0bb123dddbcc]
@startgantt Term 232
title Term 232

Project starts 2024-01-29
printscale weekly zoom 5
today is colored in LightBlue

[Initial UI mockups] as [IUM] lasts 1 week
[Setup backend infra] as [SBI] lasts 1 week
[UI & Backend Setup Initiated] as [UBSI] happens at [SBI]'s end

[User auth. screens] as [UAS] lasts 1 week
[UAS] starts at [IUM]'s end
[User auth. services] as [UAuthS] lasts 1 week
[UAuthS] starts at [SBI]'s end
[User auth. Prototyping] as [UAP] happens at [UAuthS]'s end

[Book catalog Listing UI] as [BCLUI] lasts 1 week
[BCLUI] starts at [UAS]'s end
[DB. setup for catalog] as [DSBC] lasts 1 week
[DSBC] starts at [UAuthS]'s end
[Book catalog Interface Development] as [BCID] happens at [DSBC]'s end

[User Profile UI] as [UPUI] lasts 1 week
[UPUI] starts at [BCLUI]'s end
[User Profile API] as [UPAPI] lasts 1 week
[UPAPI] starts at [DSBC]'s end
[User Profile Integration] as [UPI] happens at [UPAPI]'s end

[Reading Features UI] as [RFUI] lasts 1 week
[RFUI] starts at [UPUI]'s end
[Reading features API] as [RFAPI] lasts 1 week
[RFAPI] starts at [UPAPI]'s end
[Reading Feature Prototyping] as [RFP] happens at [RFAPI]'s end

[Library Management UI] as [LMUI] lasts 1 week
[LMUI] starts at [RFUI]'s end
[Library Management API] as [LMAPI] lasts 1 week
[LMAPI] starts at [RFAPI]'s end
[Library Management System Development] as [LMSD] happens at [LMAPI]'s end

[TTS UI] as [TTSUI] lasts 1 week
[TTSUI] starts at [LMUI]'s end
[Setup TTS Service] as [STTSS] lasts 1 week
[STTSS] starts at [LMAPI]'s end
[TTS Feature Integration] as [TTSFI] happens at [STTSS]'s end

[Visual. Features UI] as [VFUI] lasts 1 week
[VFUI] starts at [TTSUI]'s end
[Visual. services] as [VS] lasts 1 week
[VS] starts at [STTSS]'s end
[Visual. Features Development] as [VFD] happens at [VS]'s end

[Summary. Features UI] as [SFUI] lasts 1 week
[SFUI] starts at [VFUI]'s end
[Setup Summary. Service] as [SSS] lasts 1 week
[SSS] starts at [VS]'s end
[Summary. Feature Integration] as [SFI] happens at [SSS]'s end

[Notifs. UI] as [NUI] lasts 1 week
[NUI] starts at [SFUI]'s end
[Notifs. system] as [NS] lasts 1 week
[NS] starts at [SSS]'s end
[Notifs. System Setup] as [NSS] happens at [NS]'s end

[Final tweaks] as [FTD] lasts 1 week
[FTD] starts at [NUI]'s end
[Finalize Implementation] as [FI] happens at [FTD]'s end
@endgantt

PlantUML version 1.2022.7(Mon Aug 22 20:01:30 AST 2022)
(GPL source distribution)
Java Runtime: Java(TM) SE Runtime Environment
JVM: Java HotSpot(TM) 64-Bit Server VM
Default Encoding: Cp1252
Language: en
Country: US
--></g></svg>